# xmcd
#
# Track frame offsets: 
#        150
#        18079
#        38179
#        54049
#        68885
#        82440
#        103762
#        121691
#        145836
#        161084
#        185506
#        187755
#        206622
#
# Disc length: 2966 seconds
#
# Revision: 0
# Processed by: cddbd v1.5.2PL0 Copyright (c) Steve Scherf et al.
# Submitted via: ExactAudioCopy v0.99pb4
#
DISCID=ab0b940d
DTITLE=Michael Saxell and Jalle Lorensson - Alltid en vals
DYEAR=2008
DGENRE=Terror
TTITLE0=När jag har dig
TTITLE1=Näktergalen
TTITLE2=Fel sida av spåren
TTITLE3=Jag tror på dig
TTITLE4=Fel av mig
TTITLE5=Ett, tu, tre...
TTITLE6=Tror hon jag bryr mig
TTITLE7=Så länge vi dansar
TTITLE8=Ett språk
TTITLE9=Prärien av is
TTITLE10=Alltid en vals
TTITLE11=När en flicka talar skånska
TTITLE12=Om himlen och österlen
EXTD=
EXTT0=
EXTT1=
EXTT2=
EXTT3=
EXTT4=
EXTT5=
EXTT6=
EXTT7=
EXTT8=
EXTT9=
EXTT10=
EXTT11=
EXTT12=
PLAYORDER=
